<svg width="16" height="17" viewBox="0 0 16 17" fill="none" xmlns="http://www.w3.org/2000/svg">
<g id="icon world">
<path id="Vector" d="M1 8.5C1 12.366 4.134 15.5 8 15.5C11.866 15.5 15 12.366 15 8.5C15 4.634 11.866 1.5 8 1.5C4.134 1.5 1 4.634 1 8.5Z" stroke="white" stroke-width="1.05" stroke-linecap="round" stroke-linejoin="round"/>
<path id="Vector_2" d="M8.70001 1.53455C8.70001 1.53455 10.8 4.29998 10.8 8.49995C10.8 12.7 8.70001 15.4654 8.70001 15.4654" stroke="white" stroke-width="1.05" stroke-linecap="round" stroke-linejoin="round"/>
<path id="Vector_3" d="M7.30001 15.4654C7.30001 15.4654 5.20001 12.7 5.20001 8.49995C5.20001 4.29998 7.30001 1.53455 7.30001 1.53455" stroke="white" stroke-width="1.05" stroke-linecap="round" stroke-linejoin="round"/>
<path id="Vector_4" d="M1.44073 10.95H14.5593" stroke="white" stroke-width="1.05" stroke-linecap="round" stroke-linejoin="round"/>
<path id="Vector_5" d="M1.44073 6.05H14.5593" stroke="white" stroke-width="1.05" stroke-linecap="round" stroke-linejoin="round"/>
</g>
</svg>
